<svg xmlns="http://www.w3.org/2000/svg" xmlns:xlink="http://www.w3.org/1999/xlink" contentStyleType="text/css" height="553px" preserveAspectRatio="none" style="width:403px;height:553px;background:#FFFFFF;" version="1.1" viewBox="0 0 403 553" width="403px" zoomAndPan="magnify"><defs/><g><rect fill="#F1F1F1" height="39.0679" rx="12.5" ry="12.5" style="stroke:#181818;stroke-width:1.5;" width="75.0618" x="10" y="256.2717"/><text fill="#000000" font-family="sans-serif" font-size="14" lengthAdjust="spacing" textLength="55.0618" x="20" y="281.2376">databog</text><rect fill="#F1F1F1" height="39.0679" rx="12.5" ry="12.5" style="stroke:#181818;stroke-width:1.5;" width="79.3598" x="135.0618" y="108.6019"/><text fill="#000000" font-family="sans-serif" font-size="14" lengthAdjust="spacing" textLength="59.3598" x="145.0618" y="133.5678">GraphQL</text><rect fill="#F1F1F1" height="39.0679" rx="12.5" ry="12.5" style="stroke:#181818;stroke-width:1.5;" width="81.0118" x="264.4216" y="20"/><text fill="#000000" font-family="sans-serif" font-size="14" lengthAdjust="spacing" textLength="61.0118" x="274.4216" y="44.9659">Relay API</text><path d="M214.4216,128.1358 L224.4216,128.1358 C239.4216,128.1358 239.4216,39.534 254.4216,39.534 L264.4216,39.534 " fill="none" style="stroke:#181818;stroke-width:1.0;"/><rect fill="#F1F1F1" height="39.0679" rx="12.5" ry="12.5" style="stroke:#181818;stroke-width:1.5;" width="127.5336" x="264.4216" y="79.0679"/><text fill="#000000" font-family="sans-serif" font-size="14" lengthAdjust="spacing" textLength="107.5336" x="274.4216" y="104.0339">Connections API</text><path d="M214.4216,128.1358 L224.4216,128.1358 C239.4216,128.1358 239.4216,98.6019 254.4216,98.6019 L264.4216,98.6019 " fill="none" style="stroke:#181818;stroke-width:1.0;"/><rect fill="#F1F1F1" height="39.0679" rx="12.5" ry="12.5" style="stroke:#181818;stroke-width:1.5;" width="94.3677" x="264.4216" y="138.1358"/><text fill="#000000" font-family="sans-serif" font-size="14" lengthAdjust="spacing" textLength="74.3677" x="274.4216" y="163.1018">Globals IDs</text><path d="M214.4216,128.1358 L224.4216,128.1358 C239.4216,128.1358 239.4216,157.6698 254.4216,157.6698 L264.4216,157.6698 " fill="none" style="stroke:#181818;stroke-width:1.0;"/><rect fill="#F1F1F1" height="39.0679" rx="12.5" ry="12.5" style="stroke:#181818;stroke-width:1.5;" width="86.7518" x="264.4216" y="197.2038"/><text fill="#000000" font-family="sans-serif" font-size="14" lengthAdjust="spacing" textLength="66.7518" x="274.4216" y="222.1697">Mutations</text><path d="M214.4216,128.1358 L224.4216,128.1358 C239.4216,128.1358 239.4216,216.7377 254.4216,216.7377 L264.4216,216.7377 " fill="none" style="stroke:#181818;stroke-width:1.0;"/><path d="M85.0618,275.8056 L95.0618,275.8056 C110.0618,275.8056 110.0618,128.1358 125.0618,128.1358 L135.0618,128.1358 " fill="none" style="stroke:#181818;stroke-width:1.0;"/><rect fill="#F1F1F1" height="39.0679" rx="12.5" ry="12.5" style="stroke:#181818;stroke-width:1.5;" width="77.7638" x="135.0618" y="315.3396"/><text fill="#000000" font-family="sans-serif" font-size="14" lengthAdjust="spacing" textLength="57.7638" x="145.0618" y="340.3055">REST API</text><rect fill="#F1F1F1" height="39.0679" rx="12.5" ry="12.5" style="stroke:#181818;stroke-width:1.5;" width="65.7238" x="262.8256" y="256.2717"/><text fill="#000000" font-family="sans-serif" font-size="14" lengthAdjust="spacing" textLength="45.7238" x="272.8256" y="281.2376">HATOS</text><path d="M212.8256,334.8735 L222.8256,334.8735 C237.8256,334.8735 237.8256,275.8056 252.8256,275.8056 L262.8256,275.8056 " fill="none" style="stroke:#181818;stroke-width:1.0;"/><rect fill="#F1F1F1" height="39.0679" rx="12.5" ry="12.5" style="stroke:#181818;stroke-width:1.5;" width="66.3958" x="262.8256" y="315.3396"/><text fill="#000000" font-family="sans-serif" font-size="14" lengthAdjust="spacing" textLength="46.3958" x="272.8256" y="340.3055">HTMLX</text><path d="M212.8256,334.8735 L222.8256,334.8735 C237.8256,334.8735 237.8256,334.8735 252.8256,334.8735 L262.8256,334.8735 " fill="none" style="stroke:#181818;stroke-width:1.0;"/><rect fill="#F1F1F1" height="39.0679" rx="12.5" ry="12.5" style="stroke:#181818;stroke-width:1.5;" width="78.2538" x="262.8256" y="374.4075"/><text fill="#000000" font-family="sans-serif" font-size="14" lengthAdjust="spacing" textLength="58.2538" x="272.8256" y="399.3734">OpenAPI</text><path d="M212.8256,334.8735 L222.8256,334.8735 C237.8256,334.8735 237.8256,393.9415 252.8256,393.9415 L262.8256,393.9415 " fill="none" style="stroke:#181818;stroke-width:1.0;"/><path d="M85.0618,275.8056 L95.0618,275.8056 C110.0618,275.8056 110.0618,334.8735 125.0618,334.8735 L135.0618,334.8735 " fill="none" style="stroke:#181818;stroke-width:1.0;"/><rect fill="#F1F1F1" height="39.0679" rx="12.5" ry="12.5" style="stroke:#181818;stroke-width:1.5;" width="45.9559" x="135.0618" y="433.4754"/><text fill="#000000" font-family="sans-serif" font-size="14" lengthAdjust="spacing" textLength="25.9559" x="145.0618" y="458.4414">SQL</text><rect fill="#F1F1F1" height="39.0679" rx="12.5" ry="12.5" style="stroke:#181818;stroke-width:1.5;" width="62.5178" x="231.0177" y="433.4754"/><text fill="#000000" font-family="sans-serif" font-size="14" lengthAdjust="spacing" textLength="42.5178" x="241.0177" y="458.4414">SQLite</text><path d="M181.0177,453.0094 L191.0177,453.0094 C206.0177,453.0094 206.0177,453.0094 221.0177,453.0094 L231.0177,453.0094 " fill="none" style="stroke:#181818;stroke-width:1.0;"/><path d="M85.0618,275.8056 L95.0618,275.8056 C110.0618,275.8056 110.0618,453.0094 125.0618,453.0094 L135.0618,453.0094 " fill="none" style="stroke:#181818;stroke-width:1.0;"/><rect fill="#F1F1F1" height="39.0679" rx="12.5" ry="12.5" style="stroke:#181818;stroke-width:1.5;" width="71.6738" x="135.0618" y="492.5433"/><text fill="#000000" font-family="sans-serif" font-size="14" lengthAdjust="spacing" textLength="51.6738" x="145.0618" y="517.5093">Datalog</text><path d="M85.0618,275.8056 L95.0618,275.8056 C110.0618,275.8056 110.0618,512.0773 125.0618,512.0773 L135.0618,512.0773 " fill="none" style="stroke:#181818;stroke-width:1.0;"/><!--SRC=[HOxHRu8m4CRV-rVSev9en9XfUDA9SpA8ZgBPwm4TQm9NqXOJ__iLT2vfqk_klhlljpOMjMqabGssp8CIBUQgOfu7UutjpsVif0UfgF46czDXgBQAI1HMAZBFthvMETO63g4PwgIpE3ZwK-cEPq_d-oOxyhlAalXhKCTMq7qE_17fVcb5tmaTK-sOri9HFaZPgKQovoI6gz36vO0_dS_cY-bonD425otCbku5_Yhmbx0BC-Z7OpRQds8mgjE5W58QgsNUzPnZ5k4L8Ut8oaO40r4KVlmrO4TNgHKrWYoBBic_uMKnUPLzedOaS4bOABwngwtRA5GfgGhWdBrDLYn6gZgit6r1RAlSNNrpC_uB]--></g></svg>