<svg xmlns="http://www.w3.org/2000/svg" xmlns:xlink="http://www.w3.org/1999/xlink" contentStyleType="text/css" height="494px" preserveAspectRatio="none" style="width:437px;height:494px;background:#FFFFFF;" version="1.1" viewBox="0 0 437 494" width="437px" zoomAndPan="magnify"><defs/><g><rect fill="#F1F1F1" height="39.0679" rx="12.5" ry="12.5" style="stroke:#181818;stroke-width:1.5;" width="75.0618" x="10" y="226.7377"/><text fill="#000000" font-family="sans-serif" font-size="14" lengthAdjust="spacing" textLength="55.0618" x="20" y="251.7036">databog</text><rect fill="#F1F1F1" height="39.0679" rx="12.5" ry="12.5" style="stroke:#181818;stroke-width:1.5;" width="71.7298" x="135.0618" y="108.6019"/><text fill="#000000" font-family="sans-serif" font-size="14" lengthAdjust="spacing" textLength="51.7298" x="145.0618" y="133.5678">graphql</text><rect fill="#F1F1F1" height="39.0679" rx="12.5" ry="12.5" style="stroke:#181818;stroke-width:1.5;" width="55.3919" x="256.7916" y="20"/><text fill="#000000" font-family="sans-serif" font-size="14" lengthAdjust="spacing" textLength="35.3919" x="266.7916" y="44.9659">serve</text><path d="M206.7916,128.1358 L216.7916,128.1358 C231.7916,128.1358 231.7916,39.534 246.7916,39.534 L256.7916,39.534 " fill="none" style="stroke:#181818;stroke-width:1.0;"/><rect fill="#F1F1F1" height="39.0679" rx="12.5" ry="12.5" style="stroke:#181818;stroke-width:1.5;" width="80.3398" x="256.7916" y="79.0679"/><text fill="#000000" font-family="sans-serif" font-size="14" lengthAdjust="spacing" textLength="60.3398" x="266.7916" y="104.0339">coverage</text><path d="M206.7916,128.1358 L216.7916,128.1358 C231.7916,128.1358 231.7916,98.6019 246.7916,98.6019 L256.7916,98.6019 " fill="none" style="stroke:#181818;stroke-width:1.0;"/><rect fill="#F1F1F1" height="39.0679" rx="12.5" ry="12.5" style="stroke:#181818;stroke-width:1.5;" width="124.0336" x="256.7916" y="138.1358"/><text fill="#000000" font-family="sans-serif" font-size="14" lengthAdjust="spacing" textLength="104.0336" x="266.7916" y="163.1018">check-grammar</text><path d="M206.7916,128.1358 L216.7916,128.1358 C231.7916,128.1358 231.7916,157.6698 246.7916,157.6698 L256.7916,157.6698 " fill="none" style="stroke:#181818;stroke-width:1.0;"/><rect fill="#F1F1F1" height="39.0679" rx="12.5" ry="12.5" style="stroke:#181818;stroke-width:1.5;" width="113.6596" x="256.7916" y="197.2038"/><text fill="#000000" font-family="sans-serif" font-size="14" lengthAdjust="spacing" textLength="93.6596" x="266.7916" y="222.1697">api-changelog</text><path d="M206.7916,128.1358 L216.7916,128.1358 C231.7916,128.1358 231.7916,216.7377 246.7916,216.7377 L256.7916,216.7377 " fill="none" style="stroke:#181818;stroke-width:1.0;"/><path d="M85.0618,246.2717 L95.0618,246.2717 C110.0618,246.2717 110.0618,128.1358 125.0618,128.1358 L135.0618,128.1358 " fill="none" style="stroke:#181818;stroke-width:1.0;"/><rect fill="#F1F1F1" height="39.0679" rx="12.5" ry="12.5" style="stroke:#181818;stroke-width:1.5;" width="82.9158" x="135.0618" y="256.2717"/><text fill="#000000" font-family="sans-serif" font-size="14" lengthAdjust="spacing" textLength="62.9158" x="145.0618" y="281.2376">javascript</text><rect fill="#F1F1F1" height="39.0679" rx="12.5" ry="12.5" style="stroke:#181818;stroke-width:1.5;" width="155.5895" x="267.9776" y="256.2717"/><text fill="#000000" font-family="sans-serif" font-size="14" lengthAdjust="spacing" textLength="135.5895" x="277.9776" y="281.2376">find-graphql-queries</text><path d="M217.9776,275.8056 L227.9776,275.8056 C242.9776,275.8056 242.9776,275.8056 257.9776,275.8056 L267.9776,275.8056 " fill="none" style="stroke:#181818;stroke-width:1.0;"/><path d="M85.0618,246.2717 L95.0618,246.2717 C110.0618,246.2717 110.0618,275.8056 125.0618,275.8056 L135.0618,275.8056 " fill="none" style="stroke:#181818;stroke-width:1.0;"/><rect fill="#F1F1F1" height="39.0679" rx="12.5" ry="12.5" style="stroke:#181818;stroke-width:1.5;" width="85.1838" x="135.0618" y="315.3396"/><text fill="#000000" font-family="sans-serif" font-size="14" lengthAdjust="spacing" textLength="65.1838" x="145.0618" y="340.3055">typescript</text><rect fill="#F1F1F1" height="39.0679" rx="12.5" ry="12.5" style="stroke:#181818;stroke-width:1.5;" width="155.5895" x="270.2456" y="315.3396"/><text fill="#000000" font-family="sans-serif" font-size="14" lengthAdjust="spacing" textLength="135.5895" x="280.2456" y="340.3055">find-graphql-queries</text><path d="M220.2456,334.8735 L230.2456,334.8735 C245.2456,334.8735 245.2456,334.8735 260.2456,334.8735 L270.2456,334.8735 " fill="none" style="stroke:#181818;stroke-width:1.0;"/><path d="M85.0618,246.2717 L95.0618,246.2717 C110.0618,246.2717 110.0618,334.8735 125.0618,334.8735 L135.0618,334.8735 " fill="none" style="stroke:#181818;stroke-width:1.0;"/><rect fill="#F1F1F1" height="39.0679" rx="12.5" ry="12.5" style="stroke:#181818;stroke-width:1.5;" width="70.0218" x="135.0618" y="403.9415"/><text fill="#000000" font-family="sans-serif" font-size="14" lengthAdjust="spacing" textLength="50.0218" x="145.0618" y="428.9074">rest-api</text><rect fill="#F1F1F1" height="39.0679" rx="12.5" ry="12.5" style="stroke:#181818;stroke-width:1.5;" width="73.7038" x="255.0836" y="374.4075"/><text fill="#000000" font-family="sans-serif" font-size="14" lengthAdjust="spacing" textLength="53.7038" x="265.0836" y="399.3734">openapi</text><path d="M205.0836,423.4754 L215.0836,423.4754 C230.0836,423.4754 230.0836,393.9415 245.0836,393.9415 L255.0836,393.9415 " fill="none" style="stroke:#181818;stroke-width:1.0;"/><rect fill="#F1F1F1" height="39.0679" rx="12.5" ry="12.5" style="stroke:#181818;stroke-width:1.5;" width="122.3116" x="255.0836" y="433.4754"/><text fill="#000000" font-family="sans-serif" font-size="14" lengthAdjust="spacing" textLength="102.3116" x="265.0836" y="458.4414">check-coverage</text><path d="M205.0836,423.4754 L215.0836,423.4754 C230.0836,423.4754 230.0836,453.0094 245.0836,453.0094 L255.0836,453.0094 " fill="none" style="stroke:#181818;stroke-width:1.0;"/><path d="M85.0618,246.2717 L95.0618,246.2717 C110.0618,246.2717 110.0618,423.4754 125.0618,423.4754 L135.0618,423.4754 " fill="none" style="stroke:#181818;stroke-width:1.0;"/><!--SRC=[ZL1DRy8m3BtdL_W8bO80eO5wGXji4WCDZO-xQKt9rYR1IIlnxsSARDT9ERpuFTllUHeYSgoCpIlqAe4S8nvSeP842aP_EfS24mZ43RKeSmqn5lVFYR9lBSAgGcuhw8tEJcWBAczJlh31aB7niUMFiadV9-jpJMmeN6NnukaVCgOGjUneHSwJVU2RarzpKv90zr1gNQADkzKIX0p6MHZqXltXg3VkR332XZpqn_BImIGTZ64-syALxghEste9mTMS4UGcH3Q7Eaf_Loqa57pMDfgAKlWG7ulP-wC0SziOThOY6zLYl_eJF8tqixbkb6Cox5TgHaUiooWTcSkDBLBORL_rH2tbWBNaI86iUd4obo_2RNu0]--></g></svg>